<?xml version="1.0" encoding="UTF-8"?>
<svg id="Layer_1" xmlns="http://www.w3.org/2000/svg" xmlns:xlink="http://www.w3.org/1999/xlink" viewBox="0 0 100 100">
  <defs>
    <style>
      .cls-1 {
        fill: #79a7ff;
      }

      .cls-2 {
        fill: #216cff;
      }

      .cls-2, .cls-3, .cls-4, .cls-5, .cls-6 {
        stroke: #0c3c92;
      }

      .cls-7 {
        fill: #0c3c92;
      }

      .cls-3 {
        fill: #00cbb7;
      }

      .cls-8, .cls-4 {
        fill: none;
      }

      .cls-4, .cls-5 {
        stroke-linecap: round;
      }

      .cls-5, .cls-6 {
        fill: #fff;
        stroke-linejoin: round;
      }

      .cls-9 {
        fill: #f3f7ff;
      }

      .cls-10 {
        clip-path: url(#clippath);
      }
    </style>
    <clipPath id="clippath">
      <rect class="cls-8" width="100" height="100"/>
    </clipPath>
  </defs>
  <g class="cls-10">
    <g>
      <path class="cls-9" d="M50,0c13.26,0,25.98,5.27,35.36,14.64,9.38,9.38,14.64,22.09,14.64,35.36s-5.27,25.98-14.64,35.36-22.09,14.64-35.36,14.64-25.98-5.27-35.36-14.64C5.27,75.98,0,63.26,0,50S5.27,24.02,14.64,14.64C24.02,5.27,36.74,0,50,0Z"/>
      <line class="cls-4" x1="79.5" y1="82.5" x2="86.5" y2="82.5"/>
      <line class="cls-4" x1="75.5" y1="82.5" x2="13.5" y2="82.5"/>
      <path class="cls-4" d="M2,74.5h96"/>
      <path class="cls-7" d="M21.69,53h-6.39c-.61,0-1.19.25-1.62.69-.43.44-.68,1.04-.68,1.67v17.28c0,.63.25,1.23.68,1.67.43.44,1.02.69,1.62.69h6.39c.61,0,1.19-.25,1.62-.69.43-.44.68-1.04.68-1.67v-17.28c0-.63-.25-1.23-.68-1.67-.43-.44-1.02-.69-1.62-.69Z"/>
      <path class="cls-7" d="M78.31,53h6.39c.61,0,1.19.25,1.62.69.43.44.68,1.04.68,1.67v17.28c0,.63-.25,1.23-.68,1.67-.43.44-1.02.69-1.62.69h-6.39c-.61,0-1.19-.25-1.62-.69-.43-.44-.68-1.04-.68-1.67v-17.28c0-.63.25-1.23.68-1.67.43-.44,1.02-.69,1.62-.69Z"/>
      <path class="cls-5" d="M20.28,36.15s0,.06,0,.09c.06.35.26.65.54.86.27.25.63.38,1,.39M20.28,36.15l1.55.84M20.28,36.15v-1.44h0c0-.3-.12-.6-.35-.83-.23-.23-.54-.37-.88-.38M20.28,36.15l-2.89-2.65M21.82,37.48h0v-.5M21.82,37.48h0v-.5M21.82,37.48s.13,0,.21.02c.04,0,.08.01.1.02.03,0,.04,0,.04,0,0,0,0,0,0,0,.07.03.13.07.18.12h0s0,0,0,0c.1.09.15.21.15.33M21.82,36.98c.14,0,.4.03.53.08.13.05.24.13.34.22.2.19.31.44.31.7M22.5,37.99s0,0,0,0h.5M22.5,37.99h0s.5,0,.5,0M22.5,37.99c0,.13-.06.26-.16.36M23,37.99c0,.27-.11.52-.31.72M20.78,34.71v1.44c.04.22.17.43.36.56l-.36-2ZM20.78,34.71c0-.44-.18-.86-.5-1.18-.32-.32-.76-.51-1.22-.53M20.78,34.71l-3.39-1.21M22.69,38.71l-.34-.37s0,0,0,0M22.69,38.71l-.36-.35s0,0,0,0M22.69,38.71c-.1.09-.22.17-.35.22s-.27.07-.41.07l-7.21-.5M22.34,38.35c-.05.05-.11.08-.18.11-.07.03-.15.04-.23.04h0s0,0,0,0h-7.21M14.72,38.5s0,0,0,0l-.02.5v-.5h0ZM14.72,38.5c-.33-.01-.64-.14-.87-.36M14.72,38.5h-1.22M13.85,38.14s0,0,0,0l-.35.36M13.85,38.14s0,0,0,0l-.34.36M13.85,38.14c-.22-.21-.34-.49-.35-.78M13.51,38.5c-.31-.3-.49-.71-.51-1.13M13.5,37.37h0s-.5,0-.5,0M13.5,37.37v-.23h0c0-.47.1-.94.29-1.38s.48-.84.83-1.18M13.5,37.37s0,0,0,0l-.5.02M13,37.38l1.62-2.8M14.62,34.58h0s-.34-.36-.34-.36M14.62,34.58l-1.62,2.56c0-.54.11-1.08.33-1.58.22-.5.54-.96.95-1.34M14.62,34.58l-.34-.36M14.62,34.58c.73-.69,1.72-1.08,2.76-1.08v-.5M14.28,34.21c.82-.78,1.94-1.21,3.1-1.21M17.39,33v.5M17.39,33h1.68M17.39,33.5h1.66M19.06,33v.5h-.01M19.06,33l-.02.5s0,0,.01,0"/>
      <path class="cls-5" d="M79.72,36.15s0,.06,0,.09c-.06.35-.26.65-.54.86-.27.25-.63.38-1,.39M79.72,36.15l-1.55.84M79.72,36.15v-1.44h0c0-.3.12-.6.35-.83.23-.23.54-.37.88-.38M79.72,36.15l2.89-2.65M78.18,37.48h0v-.5M78.18,37.48h0v-.5M78.18,37.48s-.13,0-.21.02c-.04,0-.08.01-.1.02-.03,0-.04,0-.04,0,0,0,0,0,0,0-.07.03-.13.07-.18.12h0s0,0,0,0c-.1.09-.15.21-.15.33M78.18,36.98c-.14,0-.4.03-.53.08-.13.05-.24.13-.34.22-.2.19-.31.44-.31.7M77.5,37.99s0,0,0,0h-.5M77.5,37.99h0s-.5,0-.5,0M77.5,37.99c0,.13.06.26.16.36M77,37.99c0,.27.11.52.31.72M79.22,34.71v1.44c-.04.22-.17.43-.36.56l.36-2ZM79.22,34.71c0-.44.18-.86.5-1.18.32-.32.76-.51,1.22-.53M79.22,34.71l3.39-1.21M77.31,38.71l.34-.37s0,0,0,0M77.31,38.71l.36-.35s0,0,0,0M77.31,38.71c.1.09.22.17.35.22.13.05.27.07.41.07l7.21-.5M77.66,38.35c.05.05.11.08.18.11.07.03.15.04.23.04h0s0,0,0,0h7.21M85.28,38.5s0,0,0,0l.02.5v-.5h0ZM85.28,38.5c.33-.01.64-.14.87-.36M85.28,38.5h1.22M86.15,38.14s0,0,0,0l.35.36M86.15,38.14s0,0,0,0l.34.36M86.15,38.14c.22-.21.34-.49.35-.78M86.49,38.5c.31-.3.49-.71.51-1.13M86.5,37.37h0s.5,0,.5,0M86.5,37.37v-.23h0c0-.47-.1-.94-.29-1.38-.19-.44-.48-.84-.83-1.18M86.5,37.37s0,0,0,0l.5.02M87,37.38l-1.62-2.8M85.38,34.58h0s.34-.36.34-.36M85.38,34.58l1.62,2.56c0-.54-.11-1.08-.33-1.58-.22-.5-.54-.96-.95-1.34M85.38,34.58l.34-.36M85.38,34.58c-.73-.69-1.72-1.08-2.76-1.08v-.5M85.72,34.21c-.82-.78-1.94-1.21-3.1-1.21M82.61,33v.5M82.61,33h-1.68M82.61,33.5h-1.66M80.94,33v.5h.01M80.94,33l.02.5s0,0-.01,0"/>
      <path class="cls-6" d="M73.02,24.86s0,.01,0,.02l5.05,12.28c.01.21.15.39.35.45,2.05.62,3.84,1.87,5.11,3.57,1.27,1.7,1.96,3.76,1.96,5.88v14.52h0c0,1.84-.75,3.59-2.06,4.89-1.31,1.3-3.09,2.03-4.95,2.03H21.49c-1.86,0-3.64-.73-4.95-2.03-1.31-1.3-2.05-3.06-2.05-4.89v-14.59h0c0-2.12.68-4.19,1.96-5.89,1.28-1.7,3.07-2.95,5.13-3.56.14-.04.26-.15.32-.29l5.1-12.37s0-.02,0-.03c.24-.67.68-1.25,1.26-1.67h0s0,0,0,0c.58-.42,1.28-.66,2-.68h39.46c.72.02,1.42.26,2,.68h0c.59.42,1.04,1,1.28,1.68Z"/>
      <path class="cls-1" d="M67,53c-10.74,3.5-22.37,3.5-34,0,2.06,2.19,4.66,3.95,7.6,5.16,2.94,1.21,6.15,1.84,9.4,1.84s6.46-.63,9.4-1.84c2.94-1.21,5.53-2.97,7.6-5.16Z"/>
      <path class="cls-2" d="M74.25,36.5H25.75l3.81-9.25h0s0-.02,0-.02c.07-.2.21-.39.39-.52h0s0,0,0,0c.15-.12.33-.19.53-.2h39.06c.18.02.35.09.48.2h0s0,.01,0,.01c.17.13.3.29.37.48h0s3.83,9.31,3.83,9.31Z"/>
      <path class="cls-3" d="M27.5,50c0,2.49-2.01,4.5-4.5,4.5s-4.5-2.01-4.5-4.5,2.01-4.5,4.5-4.5,4.5,2.01,4.5,4.5Z"/>
      <path class="cls-3" d="M80.5,49.9c0,2.49-2.01,4.5-4.5,4.5s-4.5-2.01-4.5-4.5,2.01-4.5,4.5-4.5,4.5,2.01,4.5,4.5Z"/>
      <path class="cls-4" d="M31,52s5.7,4,19,4,19-4,19-4"/>
    </g>
  </g>
</svg>
