<?xml version="1.0" encoding="UTF-8"?>
<svg id="Layer_1" xmlns="http://www.w3.org/2000/svg" xmlns:xlink="http://www.w3.org/1999/xlink" viewBox="0 0 100 100">
  <defs>
    <style>
      .cls-1 {
        fill: #00cbb7;
      }

      .cls-1, .cls-2, .cls-3, .cls-4 {
        stroke: #0c3c92;
      }

      .cls-1, .cls-3 {
        stroke-miterlimit: 10;
      }

      .cls-2 {
        fill: #216cff;
      }

      .cls-5, .cls-3 {
        fill: #fff;
      }

      .cls-6, .cls-4 {
        fill: none;
      }

      .cls-7 {
        fill: #e7efff;
        isolation: isolate;
        opacity: .5;
      }

      .cls-4 {
        stroke-linecap: round;
        stroke-linejoin: round;
      }

      .cls-8 {
        clip-path: url(#clippath);
      }
    </style>
    <clipPath id="clippath">
      <rect class="cls-6" width="100" height="100"/>
    </clipPath>
  </defs>
  <g class="cls-8">
    <g>
      <path class="cls-5" d="M50,0c13.26,0,25.98,5.27,35.36,14.64,9.38,9.38,14.64,22.09,14.64,35.36s-5.27,25.98-14.64,35.36-22.09,14.64-35.36,14.64-25.98-5.27-35.36-14.64C5.27,75.98,0,63.26,0,50S5.27,24.02,14.64,14.64C24.02,5.27,36.74,0,50,0Z"/>
      <path class="cls-7" d="M50,0c13.26,0,25.98,5.27,35.36,14.64,9.38,9.38,14.64,22.09,14.64,35.36s-5.27,25.98-14.64,35.36-22.09,14.64-35.36,14.64-25.98-5.27-35.36-14.64C5.27,75.98,0,63.26,0,50S5.27,24.02,14.64,14.64C24.02,5.27,36.74,0,50,0Z"/>
      <path class="cls-3" d="M79.5,46c0,15.74-12.76,28.5-28.5,28.5s-28.5-12.76-28.5-28.5,12.76-28.5,28.5-28.5,28.5,12.76,28.5,28.5Z"/>
      <path class="cls-1" d="M73.5,46c0,12.43-10.07,22.5-22.5,22.5s-22.5-10.07-22.5-22.5,10.07-22.5,22.5-22.5,22.5,10.07,22.5,22.5Z"/>
      <path class="cls-2" d="M51.05,60.5h0c-.27,0-.55-.04-.8-.14-.25-.1-.48-.24-.67-.42-.12-.11-.21-.25-.27-.4-.06-.15-.09-.3-.08-.46h0s.04-1.97.04-1.97v-.43s-.42-.07-.42-.07c-1.74-.3-3.37-1.01-4.73-2.09l-.04-.03-.04-.02c-.13-.07-.24-.16-.33-.27-.09-.11-.15-.23-.18-.36l-.48.12.48-.12c-.03-.13-.04-.26-.01-.4.03-.13.08-.26.16-.37h0s0-.03,0-.03l1.15-1.84h0c.1-.17.24-.3.42-.4.17-.1.37-.15.57-.15.26,0,.51.08.72.21,1.16,1.02,2.67,1.62,4.24,1.68h0s0,0,0,0c.58,0,1.11-.14,1.52-.42.42-.29.71-.73.71-1.27,0-.22-.03-.47-.14-.73-.11-.26-.29-.52-.55-.76-.52-.48-1.39-.96-2.8-1.47h-.01c-.79-.31-2.3-.89-3.61-1.94-1.31-1.05-2.38-2.53-2.38-4.67.01-1.4.56-2.75,1.53-3.8.98-1.05,2.33-1.74,3.8-1.92l.48-.06-.04-.48-.19-2.1c-.01-.29.09-.58.3-.81.42-.39.99-.61,1.58-.63h0c.29-.01.58.04.85.14.27.1.51.25.71.44.11.11.2.24.26.39.06.14.09.29.08.44l-.21,2.19-.04.44.44.09c1.51.32,2.93.92,4.19,1.76h0s0,.01,0,.01c.21.13.36.33.41.55h0s0,.02,0,.02c.04.15.05.3.03.46-.02.15-.08.29-.17.42l-1.22,1.68h0s0,.02,0,.02c-.12.18-.29.34-.49.45-.2.11-.42.17-.66.18-.19,0-.38-.05-.55-.14-1.12-.83-2.47-1.34-3.88-1.47h-.02s-.02,0-.02,0h-.02c-.24,0-.72,0-1.15.15-.23.08-.47.22-.66.45-.2.24-.3.54-.3.89,0,.41.14.87.65,1.34.48.44,1.28.88,2.58,1.33,1.61.61,3.29,1.38,4.56,2.48,1.26,1.09,2.1,2.48,2.11,4.39-.06,1.4-.62,2.75-1.59,3.81-.97,1.07-2.3,1.79-3.77,2.04l-.45.08.04.46.17,2.11h0c.01.14,0,.29-.05.42-.05.13-.12.25-.22.36-.42.39-.98.62-1.58.63Z"/>
      <path class="cls-4" d="M1,74.5h96"/>
      <path class="cls-4" d="M12,82.5h64"/>
      <path class="cls-4" d="M80,82.5h8"/>
    </g>
  </g>
</svg>
