<?xml version="1.0" encoding="UTF-8"?>
<svg id="Layer_1" xmlns="http://www.w3.org/2000/svg" viewBox="0 0 100 100">
  <defs>
    <style>
      .cls-1 {
        fill: #00cbb7;
      }

      .cls-1, .cls-2, .cls-3, .cls-4, .cls-5, .cls-6 {
        stroke: #0c3c92;
      }

      .cls-1, .cls-4 {
        stroke-miterlimit: 10;
      }

      .cls-2 {
        fill: #216cff;
      }

      .cls-3, .cls-7, .cls-4 {
        fill: #fff;
      }

      .cls-8 {
        fill: #0c3c92;
      }

      .cls-9 {
        fill: #e7efff;
        isolation: isolate;
        opacity: .5;
      }

      .cls-5, .cls-6 {
        fill: none;
        stroke-linecap: round;
      }

      .cls-6 {
        stroke-linejoin: round;
      }
    </style>
  </defs>
  <path class="cls-7" d="M50,0c13.26,0,25.98,5.27,35.36,14.64,9.38,9.38,14.64,22.09,14.64,35.36s-5.27,25.98-14.64,35.36-22.09,14.64-35.36,14.64-25.98-5.27-35.36-14.64C5.27,75.98,0,63.26,0,50S5.27,24.02,14.64,14.64C24.02,5.27,36.74,0,50,0Z"/>
  <path class="cls-9" d="M50,0c13.26,0,25.98,5.27,35.36,14.64,9.38,9.38,14.64,22.09,14.64,35.36s-5.27,25.98-14.64,35.36-22.09,14.64-35.36,14.64-25.98-5.27-35.36-14.64C5.27,75.98,0,63.26,0,50S5.27,24.02,14.64,14.64C24.02,5.27,36.74,0,50,0Z"/>
  <path class="cls-6" d="M.5,74.5h99"/>
  <path class="cls-6" d="M12,82.5h64"/>
  <path class="cls-6" d="M80,82.5h8"/>
  <path class="cls-8" d="M75,51H29l-10,7h66l-10-7Z"/>
  <path class="cls-2" d="M19.5,58.5h65v13.75c0,.54-.33,1.09-.98,1.53-.65.44-1.58.72-2.63.72H23.11c-1.05,0-1.98-.29-2.63-.72-.66-.44-.98-.99-.98-1.53v-13.75Z"/>
  <path class="cls-3" d="M29.5,18.67c0-.64.52-1.17,1.17-1.17h42.67c.64,0,1.17.52,1.17,1.17v39.83H29.5V18.67Z"/>
  <path class="cls-1" d="M39.09,34.31l1.2,1.8c.04.06.07.13.08.2.01.07.01.15,0,.22l-1.28-2.22ZM39.09,34.31c-.06-.09-.09-.2-.09-.31M39.09,34.31l-.09-.31M40.87,36.63s0,0,0,0l-.42,2.11h0s0,.03,0,.04c0,.01.01.02.02.03h0s1.8,1.2,1.8,1.2h0c.23.16.4.4.45.67h0s.42,2.12.42,2.12h0s0,.02.02.03c0,0,.02.01.03.02h0s2.12.42,2.12.42c.14.03.27.08.38.16.12.08.22.18.29.29l1.2,1.8s.02.02.03.02c.01,0,.02,0,.04,0h0s2.12-.42,2.12-.42h0c.28-.05.56,0,.79.16h0s1.8,1.2,1.8,1.2c0,0,0,0,0,0,.01,0,.02.01.04.01s.03,0,.04-.01c0,0,0,0,0,0l1.79-1.2h0c.23-.16.52-.21.79-.16h0s2.12.42,2.12.42h0s.03,0,.04,0c.01,0,.02-.01.03-.02,0,0,0,0,0,0l1.2-1.79h0c.16-.24.4-.4.68-.45l2.12-.42h0s.02,0,.03-.02c0,0,.01-.02.02-.03h0s.42-2.12.42-2.12h0c.03-.14.08-.27.16-.38.08-.12.18-.21.29-.29,0,0,0,0,0,0l1.79-1.2h0s.02-.02.02-.03c0-.01,0-.02,0-.04,0,0,0,0,0,0l-.42-2.11h0c-.05-.28,0-.57.16-.8,0,0,0,0,0,0l1.2-1.79s0,0,0,0h0s.01-.02.01-.03,0-.02-.01-.04h0s-1.2-1.79-1.2-1.79c0,0,0,0,0,0-.08-.12-.13-.25-.16-.38-.03-.14-.03-.28,0-.42h0s.42-2.12.42-2.12h0s0-.03,0-.04c0-.01-.01-.02-.02-.03,0,0,0,0,0,0l-1.79-1.2s0,0,0,0c-.12-.08-.22-.18-.29-.29-.08-.12-.13-.25-.16-.38h0s-.42-2.12-.42-2.12c0,0,0,0,0,0,0-.01,0-.02-.02-.03,0,0-.02-.02-.03-.02h0l-2.12-.42h0c-.14-.03-.27-.08-.38-.16-.12-.08-.22-.18-.29-.29,0,0,0,0,0,0l-1.2-1.79s0,0,0,0c0-.01-.02-.02-.03-.02-.01,0-.02,0-.04,0h0s-2.12.42-2.12.42c0,0,0,0,0,0h0l-13.76,13.76ZM40.87,36.63c.03-.14.03-.28,0-.42-.03-.14-.08-.27-.16-.38,0,0,0,0,0,0l-1.2-1.79h0s-.01-.02-.01-.04,0-.02.01-.04h0s1.2-1.79,1.2-1.79c0,0,0,0,0,0,.08-.12.13-.25.16-.39.03-.14.03-.28,0-.42l-.42-2.11h0s0-.03,0-.04c0-.01.01-.02.02-.03l.39,7.44ZM39,34c0-.11.03-.22.09-.31l-.09.31ZM40.47,29.19l1.8-1.2h0c.23-.16.4-.4.45-.67h0s.42-2.12.42-2.12c0,0,0,0,0,0,0-.01,0-.02.02-.03,0,0,.02-.02.03-.02,0,0,0,0,0,0l-2.72,4.04Z"/>
  <path class="cls-4" d="M60.5,34c0,4.69-3.81,8.5-8.5,8.5s-8.5-3.81-8.5-8.5,3.81-8.5,8.5-8.5,8.5,3.81,8.5,8.5Z"/>
  <path class="cls-8" d="M56.01,29.17c-.82-.4-1.81-.09-2.26.71l-2.8,4.9-.93-2.21c-.28-.67-.97-1.06-1.69-.95-1.1.17-1.66,1.4-1.13,2.36l2.3,4.16c.61,1.1,2.14,1.17,2.84.12l4.35-6.5c.59-.89.28-2.11-.69-2.58Z"/>
  <path class="cls-5" d="M34,51.5h36"/>
  <path class="cls-5" d="M34,55.5h36"/>
</svg>
