<?xml version="1.0" encoding="UTF-8"?>
<svg id="Layer_1" xmlns="http://www.w3.org/2000/svg" xmlns:xlink="http://www.w3.org/1999/xlink" viewBox="0 0 100 100">
  <defs>
    <style>
      .cls-1 {
        fill: #216cff;
      }

      .cls-1, .cls-2, .cls-3, .cls-4, .cls-5 {
        stroke: #0c3c92;
      }

      .cls-6 {
        fill: #fff;
      }

      .cls-2, .cls-3 {
        stroke-miterlimit: 10;
      }

      .cls-2, .cls-7, .cls-5 {
        fill: none;
      }

      .cls-2, .cls-5 {
        stroke-linecap: round;
      }

      .cls-3 {
        fill: #79a7ff;
      }

      .cls-4 {
        fill: #00cbb7;
      }

      .cls-8 {
        fill: #e7efff;
        isolation: isolate;
        opacity: .5;
      }

      .cls-5 {
        stroke-linejoin: round;
      }

      .cls-9 {
        clip-path: url(#clippath);
      }
    </style>
    <clipPath id="clippath">
      <rect class="cls-7" width="100" height="100"/>
    </clipPath>
  </defs>
  <g class="cls-9">
    <g>
      <path class="cls-6" d="M50,0c13.26,0,25.98,5.27,35.36,14.64,9.38,9.38,14.64,22.09,14.64,35.36s-5.27,25.98-14.64,35.36-22.09,14.64-35.36,14.64-25.98-5.27-35.36-14.64C5.27,75.98,0,63.26,0,50S5.27,24.02,14.64,14.64C24.02,5.27,36.74,0,50,0Z"/>
      <path class="cls-8" d="M50,0c13.26,0,25.98,5.27,35.36,14.64,9.38,9.38,14.64,22.09,14.64,35.36s-5.27,25.98-14.64,35.36-22.09,14.64-35.36,14.64-25.98-5.27-35.36-14.64C5.27,75.98,0,63.26,0,50S5.27,24.02,14.64,14.64C24.02,5.27,36.74,0,50,0Z"/>
      <path class="cls-5" d="M.5,74.5h99"/>
      <path class="cls-5" d="M12,82.5h64"/>
      <path class="cls-5" d="M80,82.5h8"/>
      <path class="cls-3" d="M83.05,74.69c-.42.2-.88.31-1.34.31h-37.4l40.67-3.97c.05.5,0,1.01-.15,1.48-.14.48-.37.92-.67,1.3M83.05,74.69c.42-.21.8-.51,1.11-.89M83.05,74.69l-.22-.45s0,0,0,0M83.05,74.69l-.23-.45s0,0,0,0M84.16,73.81l-.38-.32s0,0,0,0M84.16,73.81l-.39-.32s0,0,0,0M83.77,73.49c.26-.32.46-.7.58-1.12h0s0-.01,0-.01c.13-.41.17-.85.13-1.29h0s-3.19-38.77-3.19-38.77M83.77,73.49c-.27.32-.59.58-.95.76M81.29,32.3l-39.78,38.77c-.06.67.07,1.33.37,1.9h0c.31.58.76,1.02,1.3,1.27h0c.36.17.74.26,1.12.26h37.4c.38,0,.76-.09,1.12-.26M81.29,32.3s0,0,0,0l.5-.05-.5.04h0ZM81.29,32.3c-.08-.78-.41-1.5-.92-2.01M81.29,32.3l-.92-2.01s0,0,0,0M80.37,30.29c-.52-.51-1.18-.79-1.86-.79M80.37,30.29l-1.86-.79M78.51,29.5h-30.47c-.68,0-1.34.28-1.86.8h0c-.52.5-.85,1.22-.92,2.01h0s-3.74,38.77-3.74,38.77l37-41.57Z"/>
      <path class="cls-2" d="M51.92,36c0,1.31.27,2.61.8,3.82.79,1.83,2.14,3.39,3.87,4.48,1.72,1.11,3.76,1.7,5.85,1.69,2.77,0,5.43-1.05,7.4-2.91,1.96-1.88,3.06-4.41,3.08-7.06"/>
      <path class="cls-1" d="M13.5,53.74s0-.1.04-.15c.04-.05.12-.09.22-.09h42.46c.1,0,.18.04.22.09.04.05.05.1.04.15l-4.49,20.03c-.09.4-.49.74-1.02.74H18.38c-.16,0-.25-.1-.27-.17l-4.61-20.59ZM21.5,69.5c1.15,0,2-1.02,2-2.17v-6.67c0-1.14-.85-2.17-2-2.17s-2,1.02-2,2.17v6.67c0,1.14.85,2.17,2,2.17ZM30.5,69.5c1.15,0,2-1.02,2-2.17v-6.67c0-1.14-.85-2.17-2-2.17s-2,1.02-2,2.17v6.67c0,1.14.85,2.17,2,2.17ZM39.5,69.5c1.15,0,2-1.02,2-2.17v-6.67c0-1.14-.85-2.17-2-2.17s-2,1.02-2,2.17v6.67c0,1.14.85,2.17,2,2.17ZM48.5,69.5c1.15,0,2-1.02,2-2.17v-6.67c0-1.14-.85-2.17-2-2.17s-2,1.02,2,2.17v6.67c0,1.14.85,2.17,2,2.17Z"/>
      <path class="cls-1" d="M11.5,49.78c0-.76.54-1.28,1.08-1.28h44.84c.54,0,1.08.51,1.08,1.28v2.45c0,.76-.54,1.28-1.08,1.28H12.58c-.54,0-1.08-.51-1.08-1.28v-2.45Z"/>
      <path class="cls-4" d="M23.55,51.24c.98.54,2.24.23,2.82-.73l7.85-13c.59-.97.23-2.2-.76-2.75-.98-.54-2.24-.23-2.82.73l-7.85,13c-.59.97-.23,2.2.76,2.75Z"/>
      <path class="cls-4" d="M43.64,50.51c.58.96,1.84,1.27,2.82.73.99-.55,1.35-1.78.76-2.75l-7.85-13c-.58-.96-1.84-1.27-2.82-.73-.99.55-1.35,1.78-.76,2.75l7.85,13Z"/>
    </g>
  </g>
</svg>
